<svg width="16" height="16" viewBox="0 0 16 16" fill="none" xmlns="http://www.w3.org/2000/svg">
<path d="M2.18262 15.3926H9.44238C10.1488 15.3926 10.6774 15.2148 11.0283 14.8594C11.3838 14.5039 11.5615 13.9684 11.5615 13.2529V10.0811H10.4609V13.2324C10.4609 13.5742 10.3698 13.8363 10.1875 14.0186C10.0098 14.2008 9.74316 14.292 9.3877 14.292H2.2373C1.88184 14.292 1.61296 14.2008 1.43066 14.0186C1.25293 13.8363 1.16406 13.5742 1.16406 13.2324V2.90332C1.16406 2.56152 1.25293 2.29948 1.43066 2.11719C1.61296 1.93034 1.88184 1.83691 2.2373 1.83691H9.3877C9.74316 1.83691 10.0098 1.93034 10.1875 2.11719C10.3698 2.29948 10.4609 2.56152 10.4609 2.90332V6.04785H11.5615V2.88281C11.5615 2.17188 11.3838 1.63639 11.0283 1.27637C10.6774 0.916341 10.1488 0.736328 9.44238 0.736328H2.18262C1.47624 0.736328 0.945312 0.916341 0.589844 1.27637C0.238932 1.63639 0.0634766 2.17188 0.0634766 2.88281V13.2529C0.0634766 13.9684 0.238932 14.5039 0.589844 14.8594C0.945312 15.2148 1.47624 15.3926 2.18262 15.3926ZM6.38672 8.60449H13.4072L14.4326 8.56348L13.9473 9.02832L12.8467 10.0605C12.7373 10.1562 12.6826 10.2793 12.6826 10.4297C12.6826 10.571 12.7259 10.6895 12.8125 10.7852C12.9036 10.8809 13.0199 10.9287 13.1611 10.9287C13.2933 10.9287 13.4141 10.8763 13.5234 10.7715L15.752 8.46094C15.8203 8.39258 15.8659 8.3265 15.8887 8.2627C15.916 8.19889 15.9297 8.13281 15.9297 8.06445C15.9297 7.99609 15.916 7.93001 15.8887 7.86621C15.8659 7.80241 15.8203 7.73633 15.752 7.66797L13.5234 5.35742C13.4141 5.24805 13.2933 5.19336 13.1611 5.19336C13.0199 5.19336 12.9036 5.24121 12.8125 5.33691C12.7259 5.42806 12.6826 5.54427 12.6826 5.68555C12.6826 5.84049 12.7373 5.96582 12.8467 6.06152L13.9473 7.10059L14.4326 7.56543L13.4072 7.51758H6.38672C6.24544 7.51758 6.1224 7.57227 6.01758 7.68164C5.91276 7.79102 5.86035 7.91862 5.86035 8.06445C5.86035 8.21029 5.91276 8.33789 6.01758 8.44727C6.1224 8.55208 6.24544 8.60449 6.38672 8.60449Z" fill="black"/>
</svg>
