<svg width="15" height="16" viewBox="0 0 15 16" fill="none" xmlns="http://www.w3.org/2000/svg">
<path d="M12.1279 8.48145L7.10352 13.5059C6.66602 13.9434 6.19434 14.2259 5.68848 14.3535C5.18717 14.4857 4.69271 14.4788 4.20508 14.333C3.72201 14.1917 3.29362 13.932 2.91992 13.5537C2.54622 13.18 2.28646 12.7516 2.14062 12.2686C1.99935 11.7855 1.99251 11.2933 2.12012 10.792C2.25228 10.2861 2.53483 9.81445 2.96777 9.37695L9.82422 2.52734C10.084 2.26302 10.3757 2.07845 10.6992 1.97363C11.0228 1.86882 11.3441 1.84831 11.6631 1.91211C11.9821 1.97591 12.2669 2.13086 12.5176 2.37695C12.7682 2.63216 12.9255 2.91927 12.9893 3.23828C13.0531 3.55273 13.0303 3.87174 12.9209 4.19531C12.8161 4.51888 12.6338 4.81055 12.374 5.07031L5.6748 11.7695C5.50618 11.9427 5.33073 12.0179 5.14844 11.9951C4.96615 11.9678 4.81576 11.8971 4.69727 11.7832C4.57878 11.6647 4.50814 11.5143 4.48535 11.332C4.46257 11.1497 4.53548 10.972 4.7041 10.7988L9.38672 6.12988C9.48698 6.02507 9.53939 5.90658 9.54395 5.77441C9.55306 5.6377 9.50749 5.51921 9.40723 5.41895C9.30697 5.32324 9.18848 5.27767 9.05176 5.28223C8.9196 5.28678 8.80339 5.34147 8.70312 5.44629L4.00684 10.1426C3.77441 10.375 3.61947 10.637 3.54199 10.9287C3.46908 11.2204 3.4668 11.5075 3.53516 11.79C3.60807 12.0726 3.74707 12.3164 3.95215 12.5215C4.17546 12.7448 4.42839 12.8929 4.71094 12.9658C4.99349 13.0342 5.27604 13.0273 5.55859 12.9453C5.8457 12.8633 6.10547 12.7061 6.33789 12.4736L13.0645 5.74707C13.4928 5.31868 13.7754 4.86068 13.9121 4.37305C14.0488 3.88542 14.0534 3.4069 13.9258 2.9375C13.7982 2.4681 13.5475 2.04655 13.1738 1.67285C12.8138 1.31283 12.3968 1.06901 11.9229 0.941406C11.4535 0.809245 10.9727 0.809245 10.4805 0.941406C9.98828 1.07357 9.52799 1.35384 9.09961 1.78223L2.20898 8.67969C1.78516 9.10352 1.47298 9.56152 1.27246 10.0537C1.07194 10.5459 0.976237 11.0472 0.985352 11.5576C0.994466 12.0635 1.09928 12.5534 1.2998 13.0273C1.50033 13.5013 1.79199 13.9274 2.1748 14.3057C2.55306 14.6839 2.97917 14.9733 3.45312 15.1738C3.92708 15.3789 4.41699 15.4837 4.92285 15.4883C5.43327 15.4974 5.93457 15.4017 6.42676 15.2012C6.91895 15.0007 7.37695 14.6908 7.80078 14.2715L12.8594 9.21289C12.9596 9.11263 13.0098 8.9873 13.0098 8.83691C13.0098 8.68652 12.9574 8.56348 12.8525 8.46777C12.7568 8.3584 12.6361 8.31055 12.4902 8.32422C12.349 8.33333 12.2282 8.38574 12.1279 8.48145Z" fill="black"/>
</svg>
