<svg width="109" height="30" viewBox="0 0 109 30" fill="none" xmlns="http://www.w3.org/2000/svg">
<path d="M36.4678 14H39.6934V8.88477H44.7471V14H47.9727V1.31738H44.7471V6.29199H39.6934V1.31738H36.4678V14ZM50.0732 14H53.4658L56.2344 4.1123H57.1572V1.31738H54.3359L50.0732 14ZM52.5605 11.2227H59.9697L59.2314 8.89355H53.2988L52.5605 11.2227ZM59.1611 14H62.5537L58.291 1.31738H56.3926V4.1123L59.1611 14ZM66.2451 10.291H70.0947C71.0381 10.291 71.8584 10.1094 72.5557 9.74609C73.2529 9.37695 73.792 8.8584 74.1729 8.19043C74.5596 7.5166 74.7529 6.72852 74.7529 5.82617V5.80859C74.7529 4.90039 74.5596 4.1123 74.1729 3.44434C73.792 2.77051 73.2529 2.24902 72.5557 1.87988C71.8584 1.50488 71.0381 1.31738 70.0947 1.31738H66.2451V3.7959H69.3125C69.998 3.7959 70.5312 3.96582 70.9121 4.30566C71.2988 4.64551 71.4922 5.14648 71.4922 5.80859V5.82617C71.4922 6.48242 71.2988 6.9834 70.9121 7.3291C70.5312 7.6748 69.998 7.84766 69.3125 7.84766H66.2451V10.291ZM64.6279 14H67.8535V1.31738H64.6279V14ZM78.6904 10.291H82.54C83.4834 10.291 84.3037 10.1094 85.001 9.74609C85.6982 9.37695 86.2373 8.8584 86.6182 8.19043C87.0049 7.5166 87.1982 6.72852 87.1982 5.82617V5.80859C87.1982 4.90039 87.0049 4.1123 86.6182 3.44434C86.2373 2.77051 85.6982 2.24902 85.001 1.87988C84.3037 1.50488 83.4834 1.31738 82.54 1.31738H78.6904V3.7959H81.7578C82.4434 3.7959 82.9766 3.96582 83.3574 4.30566C83.7441 4.64551 83.9375 5.14648 83.9375 5.80859V5.82617C83.9375 6.48242 83.7441 6.9834 83.3574 7.3291C82.9766 7.6748 82.4434 7.84766 81.7578 7.84766H78.6904V10.291ZM77.0732 14H80.2988V1.31738H77.0732V14ZM92.4805 14H95.7061V9.64941L100.083 1.31738H96.6377L94.1855 6.49414H94.0186L91.5576 1.31738H88.1123L92.4805 9.64941V14ZM36.4678 29H39.6934V24.5703H41.2139C41.2373 24.5703 41.2607 24.5703 41.2842 24.5703C41.3135 24.5703 41.3398 24.5703 41.3633 24.5703L43.5342 29H47.1553L44.624 24.0869C45.3154 23.7881 45.8486 23.3135 46.2236 22.6631C46.5986 22.0127 46.7861 21.2979 46.7861 20.5186V20.501C46.7861 19.6279 46.6016 18.8809 46.2324 18.2598C45.8633 17.6328 45.3213 17.1523 44.6064 16.8184C43.8975 16.4844 43.0215 16.3174 41.9785 16.3174H36.4678V29ZM39.6934 22.3467V18.752H41.6006C42.1807 18.752 42.6406 18.916 42.9805 19.2441C43.3203 19.5723 43.4902 20.0059 43.4902 20.5449V20.5625C43.4902 21.1074 43.3232 21.541 42.9893 21.8633C42.6553 22.1855 42.1982 22.3467 41.6182 22.3467H39.6934ZM49.3174 29H58.0186V26.4072H52.543V23.8145H57.6934V21.4414H52.543V18.9102H58.0186V16.3174H49.3174V29ZM63.8721 29H68.0469L72.0371 16.3174H68.3457L66.043 25.5811H65.876L63.5645 16.3174H59.8818L63.8721 29ZM74.1377 29H77.3633V16.3174H74.1377V29ZM80.3076 29H89.0088V26.4072H83.5332V23.8145H88.6836V21.4414H83.5332V18.9102H89.0088V16.3174H80.3076V29ZM94.2998 29H97.3496L99.4326 21.248H99.582L101.691 29H104.724L108.037 16.3174H104.715L103.054 24.7197H102.896L100.804 16.3174H98.2109L96.1807 24.7197H96.0225L94.335 16.3174H90.9863L94.2998 29Z" fill="black"/>
<path d="M14.985 0C6.705 0 0 6.72 0 15C0 23.28 6.705 30 14.985 30C23.28 30 30 23.28 30 15C30 6.72 23.28 0 14.985 0ZM15 27C8.37 27 3 21.63 3 15C3 8.37 8.37 3 15 3C21.63 3 27 8.37 27 15C27 21.63 21.63 27 15 27ZM20.25 13.5C21.495 13.5 22.5 12.495 22.5 11.25C22.5 10.005 21.495 9 20.25 9C19.005 9 18 10.005 18 11.25C18 12.495 19.005 13.5 20.25 13.5ZM9.75 13.5C10.995 13.5 12 12.495 12 11.25C12 10.005 10.995 9 9.75 9C8.505 9 7.5 10.005 7.5 11.25C7.5 12.495 8.505 13.5 9.75 13.5ZM15 23.25C18.495 23.25 21.465 21.06 22.665 18H7.335C8.535 21.06 11.505 23.25 15 23.25Z" fill="black"/>
</svg>
