<svg width="15" height="16" viewBox="0 0 15 16" fill="none" xmlns="http://www.w3.org/2000/svg">
<path d="M2.0791 8.06445C2.0791 7.79557 2.09733 7.53125 2.13379 7.27148C2.1748 7.01172 2.22949 6.75879 2.29785 6.5127L0.636719 5.82227C0.518229 6.17318 0.427083 6.53776 0.363281 6.91602C0.304036 7.28971 0.274414 7.67253 0.274414 8.06445C0.274414 8.45182 0.306315 8.83464 0.370117 9.21289C0.433919 9.58659 0.522786 9.95117 0.636719 10.3066L2.29785 9.60938C2.22949 9.36328 2.1748 9.11263 2.13379 8.85742C2.09733 8.59766 2.0791 8.33333 2.0791 8.06445ZM4.91602 3.28613L4.22559 1.63184C3.54655 1.98275 2.93587 2.42936 2.39355 2.97168C1.85579 3.50944 1.41146 4.11784 1.06055 4.79688L2.72168 5.4873C2.97233 5.02246 3.28451 4.60319 3.6582 4.22949C4.0319 3.85124 4.45117 3.53678 4.91602 3.28613ZM7.49316 2.64355C7.76204 2.64355 8.02637 2.66406 8.28613 2.70508C8.5459 2.74154 8.79883 2.79622 9.04492 2.86914L9.73535 1.20801C9.37988 1.08952 9.01302 1.00065 8.63477 0.941406C8.26107 0.877604 7.88053 0.845703 7.49316 0.845703C7.10124 0.845703 6.71615 0.877604 6.33789 0.941406C5.96419 1.00065 5.59961 1.08952 5.24414 1.20801L5.94141 2.86914C6.1875 2.79622 6.44043 2.74154 6.7002 2.70508C6.95996 2.66406 7.22428 2.64355 7.49316 2.64355ZM12.2715 5.4873L13.9258 4.79688C13.5749 4.11784 13.1283 3.50716 12.5859 2.96484C12.0436 2.42253 11.4329 1.97591 10.7539 1.625L10.0703 3.28613C10.5352 3.53678 10.9544 3.84896 11.3281 4.22266C11.7064 4.59635 12.0208 5.0179 12.2715 5.4873ZM12.9209 8.06445C12.9209 8.33333 12.9004 8.59766 12.8594 8.85742C12.8184 9.11719 12.7637 9.36784 12.6953 9.60938L14.3496 10.3066C14.4681 9.95573 14.5592 9.59115 14.623 9.21289C14.6868 8.83464 14.7188 8.45182 14.7188 8.06445C14.7188 7.67253 14.6868 7.28971 14.623 6.91602C14.5592 6.53776 14.4681 6.1709 14.3496 5.81543L12.6885 6.5127C12.7614 6.75423 12.8184 7.00716 12.8594 7.27148C12.9004 7.53125 12.9209 7.79557 12.9209 8.06445ZM10.0703 12.8359L10.7539 14.4971C11.4375 14.1462 12.0505 13.6995 12.5928 13.1572C13.1351 12.6149 13.5794 12.0042 13.9258 11.3252L12.2715 10.6416C12.0208 11.1064 11.7064 11.528 11.3281 11.9062C10.9544 12.2799 10.5352 12.5898 10.0703 12.8359ZM7.49316 13.4854C7.22428 13.4854 6.95996 13.4648 6.7002 13.4238C6.44043 13.3874 6.1875 13.3327 5.94141 13.2598L5.25098 14.9209C5.60645 15.0348 5.97103 15.1237 6.34473 15.1875C6.72298 15.2513 7.10579 15.2832 7.49316 15.2832C7.88509 15.2832 8.2679 15.2513 8.6416 15.1875C9.0153 15.1283 9.37988 15.0394 9.73535 14.9209L9.04492 13.2598C8.79883 13.3327 8.5459 13.3874 8.28613 13.4238C8.02637 13.4648 7.76204 13.4854 7.49316 13.4854ZM2.72168 10.6416L1.06738 11.3252C1.41374 12.0042 1.85807 12.6149 2.40039 13.1572C2.94271 13.6995 3.55111 14.1439 4.22559 14.4902L4.91602 12.8291C4.45117 12.583 4.0319 12.2731 3.6582 11.8994C3.28451 11.5257 2.97233 11.1064 2.72168 10.6416Z" fill="black"/>
</svg>
