<svg width="34" height="33" viewBox="0 0 34 33" fill="none" xmlns="http://www.w3.org/2000/svg">
<path d="M16.525 27.4784C18.6961 27.4784 20.8184 26.8347 22.6236 25.6285C24.4287 24.4223 25.8357 22.7079 26.6665 20.7022C27.4973 18.6964 27.7148 16.4892 27.2912 14.3598C26.8677 12.2305 25.8222 10.2746 24.287 8.73939C22.7518 7.20422 20.7959 6.15874 18.6666 5.73519C16.5372 5.31163 14.3301 5.52902 12.3243 6.35985C10.3185 7.19069 8.60408 8.59764 7.39789 10.4028C6.19172 12.208 5.54791 14.3304 5.54791 16.5014C5.54791 19.4127 6.70443 22.2048 8.76304 24.2634C10.8217 26.3219 13.6138 27.4784 16.525 27.4784ZM10.6011 15.1405C10.8255 14.9588 11.1065 14.8612 11.3953 14.8647C11.7714 14.865 12.1322 15.0137 12.3992 15.2786L14.883 17.7386L20.4453 12.2001C20.5783 12.0669 20.7363 11.9614 20.9102 11.8895C21.0841 11.8177 21.2705 11.7809 21.4587 11.7814C21.7476 11.7781 22.0286 11.8756 22.2534 12.0572C22.395 12.1735 22.5107 12.3183 22.5927 12.4823C22.6747 12.6463 22.7212 12.8257 22.7292 13.0089C22.7423 13.1914 22.7178 13.3746 22.6573 13.5474C22.5967 13.72 22.5014 13.8784 22.377 14.0128L15.5828 20.7552C15.4944 20.8444 15.3891 20.9153 15.2731 20.9636C15.1573 21.0118 15.0329 21.0367 14.9072 21.0367C14.7816 21.0367 14.6572 21.0118 14.5412 20.9636C14.4253 20.9153 14.3201 20.8444 14.2316 20.7552L10.4821 17.0724C10.3537 16.9456 10.2535 16.7933 10.1879 16.6253C10.1224 16.4571 10.093 16.2771 10.1016 16.0969C10.1138 15.9116 10.1646 15.7308 10.2506 15.5661C10.3366 15.4015 10.456 15.2565 10.6011 15.1405Z" fill="#202020"/>
<path d="M29.4676 23.2436C29.223 23.2407 28.982 23.3032 28.7695 23.4244C28.557 23.5457 28.3809 23.7215 28.2589 23.9336C26.4844 26.7386 23.763 28.8147 20.5888 29.7847C17.4145 30.7549 13.9976 30.5549 10.9581 29.2211C7.91858 27.8874 5.45798 25.5081 4.02275 22.5152C2.58751 19.5222 2.27277 16.114 3.13563 12.9089V12.8565C3.17098 12.6788 3.17097 12.4958 3.13558 12.3181C3.10019 12.1403 3.03013 11.9712 2.92941 11.8206C2.82868 11.6699 2.69926 11.5405 2.54852 11.4399C2.39779 11.3392 2.22872 11.2693 2.05094 11.234H1.95579C1.65985 11.2523 1.3744 11.3505 1.12976 11.518C0.885121 11.6856 0.690433 11.9163 0.566376 12.1856C-0.458593 15.9991 -0.0840581 20.0537 1.62215 23.6149C3.32836 27.1762 6.25346 30.0087 9.8677 31.5996C13.482 33.1905 17.5465 33.4345 21.3251 32.2875C25.1037 31.1405 28.3467 28.6782 30.4667 25.3467C30.6707 25.0471 30.7482 24.6791 30.6822 24.3226C30.6164 23.9662 30.4123 23.6503 30.1146 23.4434C29.9216 23.3181 29.6976 23.249 29.4676 23.2436Z" fill="#202020"/>
<path d="M16.5442 0H16.3396C13.6379 0.0293606 10.9848 0.72206 8.61352 2.01719C6.24229 3.31232 4.22558 5.17021 2.74072 7.42748L2.71212 7.46091C2.49648 7.75631 2.40694 8.12523 2.46315 8.48661C2.51936 8.84799 2.71674 9.17228 3.01191 9.38822C3.21834 9.51775 3.45821 9.58393 3.70186 9.57857C3.95125 9.58168 4.19678 9.51691 4.41218 9.39119C4.62757 9.26548 4.80473 9.08356 4.92467 8.86488C6.73096 6.10072 9.46414 4.07162 12.6328 3.14251C15.8014 2.21338 19.1975 2.44518 22.2105 3.79621C25.2235 5.14725 27.6556 7.52887 29.0695 10.5128C30.4836 13.4969 30.7866 16.8874 29.9241 20.0748V20.1271C29.8542 20.4854 29.9291 20.8569 30.1324 21.1601C30.3357 21.4633 30.651 21.6736 31.0091 21.7449C31.0724 21.75 31.136 21.75 31.1994 21.7449C31.4896 21.7386 31.7705 21.6409 32.002 21.4658C32.2335 21.2907 32.4038 21.047 32.4889 20.7694C33.1396 18.3245 33.2201 15.7628 32.7242 13.282C32.2282 10.801 31.169 8.46714 29.6284 6.46031C28.0878 4.45349 26.1068 2.82732 23.8382 1.70723C21.5697 0.587133 19.0741 0.00304266 16.5442 0Z" fill="#202020"/>
</svg>
